<svg version="1.1" id="Layer_1" xmlns="http://www.w3.org/2000/svg" xmlns:xlink="http://www.w3.org/1999/xlink" x="0px" y="0px"
	 width="100%" viewBox="0 0 1024 1024" enable-background="new 0 0 1024 1024" xml:space="preserve">
<path fill="#000000" opacity="1.000000" stroke="none" 
	d="
M567.370361,69.350082 
	C573.790710,63.501759 580.038452,57.984863 586.073303,52.244186 
	C591.252625,47.317387 596.012756,41.867146 604.371521,43.767559 
	C606.475952,44.246025 608.608215,43.489849 610.730042,42.934353 
	C614.879456,41.848064 618.648926,42.726704 621.677979,46.008175 
	C623.033691,47.476826 624.281189,49.148113 625.901245,50.253166 
	C635.601257,56.869644 633.007507,68.320511 626.050537,75.709206 
	C602.409302,100.817352 578.612000,125.778503 554.860657,150.782791 
	C549.877014,156.029312 550.037109,157.406693 556.286316,160.548615 
	C579.201172,172.069565 602.044373,183.737564 625.082764,195.006195 
	C635.548340,200.125168 647.302490,200.503433 658.552307,202.656906 
	C675.369324,205.876053 692.373169,207.878128 709.326843,210.188614 
	C723.654785,212.141281 738.010010,213.893219 752.354126,215.726578 
	C754.899048,216.051849 757.629761,215.829483 759.593323,217.997604 
	C758.504272,220.710922 756.574036,219.817612 754.848511,219.598053 
	C735.386414,217.121796 715.898682,214.828796 696.469666,212.115601 
	C676.058838,209.265274 655.632874,206.487488 635.404846,202.424698 
	C626.916687,200.719864 619.392822,196.814453 611.823059,193.018082 
	C591.570068,182.860855 571.375916,172.582901 551.270752,162.136795 
	C547.525818,160.190979 545.132751,160.472244 542.226196,163.607620 
	C534.640747,171.790329 527.171021,180.175690 518.818604,187.530212 
	C505.451141,199.300644 492.775818,211.741135 480.320007,224.433960 
	C479.068115,225.709656 477.453186,226.729080 476.632782,229.304169 
	C483.741547,228.995880 489.224884,223.735336 496.221619,223.023682 
	C496.250824,226.893997 493.933502,227.483810 492.046387,228.249680 
	C469.816162,237.271667 447.567474,246.321228 424.308960,252.371201 
	C410.952576,255.845444 397.312439,258.223175 384.009613,261.980469 
	C382.090302,262.522552 380.170410,263.090363 378.305725,263.792236 
	C374.337250,265.285919 371.269897,266.417389 374.234406,272.233734 
	C376.711639,277.094055 376.433502,283.255463 378.551636,288.563965 
	C379.113892,289.973114 379.456024,291.808624 377.558380,292.387329 
	C375.660370,292.966187 374.980042,291.170319 374.567383,289.765778 
	C373.253632,285.294220 372.063568,280.785767 370.867493,276.280487 
	C370.405853,274.541626 370.220459,272.695831 368.162628,270.830933 
	C363.538086,274.655029 358.958435,278.407623 355.751190,283.475891 
	C354.418823,285.581299 356.290192,287.954803 356.448639,290.257263 
	C356.846802,296.043640 357.603851,301.805542 359.134674,307.448914 
	C360.542267,312.637970 363.060974,317.019073 367.636810,319.945953 
	C370.316437,321.659943 370.843628,323.583618 368.967773,326.131226 
	C364.378082,332.364716 359.199371,337.900513 351.200134,340.809021 
	C353.469604,342.497406 355.805511,342.915924 358.116974,342.267426 
	C375.267792,337.455505 392.529175,332.853577 407.458069,322.526825 
	C410.178619,320.644958 412.887329,318.522491 414.981812,315.997131 
	C424.733643,304.238892 438.116760,300.657349 452.339355,299.790527 
	C471.075653,298.648560 488.956360,303.681946 506.710083,308.937866 
	C522.661133,313.660095 538.411316,319.251587 554.911987,321.763306 
	C579.905823,325.567902 603.255798,320.882416 624.649597,307.109955 
	C626.801758,305.724487 628.623840,303.458679 631.844666,303.672058 
	C633.094116,306.544464 630.754150,307.546753 629.143005,308.658936 
	C614.873962,318.508423 599.050476,324.747284 581.837036,325.961792 
	C571.709900,326.676331 563.253601,332.046539 553.800781,332.855530 
	C553.315430,334.373932 553.899658,334.785187 554.481384,335.030243 
	C576.388245,344.258728 599.131897,349.638855 622.998718,348.523468 
	C643.846436,347.549255 664.473694,344.338318 684.226318,337.525818 
	C693.819275,334.217316 702.575012,336.249786 711.605713,338.239502 
	C777.413452,352.738831 843.205627,367.308533 908.991577,381.906097 
	C910.919800,382.333984 913.356140,382.186951 914.400391,384.551270 
	C912.873108,387.103424 910.984558,385.752716 909.386108,385.397400 
	C869.901917,376.621185 830.443176,367.729736 790.946655,359.009827 
	C761.368652,352.479706 731.743958,346.161102 702.140564,339.746216 
	C696.805359,338.590118 691.621826,339.018127 686.380737,340.619019 
	C662.863647,347.802521 638.891785,352.449310 614.201965,352.141205 
	C592.932739,351.875854 572.777527,346.307281 553.174744,338.400574 
	C536.642761,331.732483 519.826904,325.839905 502.844818,320.429901 
	C499.899475,319.491577 496.802521,318.450867 493.898468,320.384613 
	C493.466064,322.732300 495.215912,323.582306 496.246704,324.758667 
	C501.003021,330.186676 502.701477,336.786621 503.048401,343.680939 
	C503.305603,348.791443 500.421173,352.442566 495.871246,354.771545 
	C490.430969,357.556244 484.545258,358.640228 478.567963,359.268738 
	C475.672058,359.573242 474.661346,360.551300 474.950684,363.729401 
	C476.055084,375.861359 471.488159,380.541290 459.167908,380.238922 
	C451.060730,380.039948 443.485138,377.280029 435.866882,374.922913 
	C426.324158,371.970367 416.857239,368.763824 407.414795,365.501404 
	C404.540894,364.508453 402.288116,364.477325 399.549103,366.322571 
	C389.646454,372.994019 383.722748,371.883057 376.731171,362.128998 
	C373.633423,357.807312 371.014252,353.133728 368.311188,348.541412 
	C366.767212,345.918274 364.710266,344.710632 361.694183,345.329346 
	C356.329010,346.429901 351.214233,347.022278 345.855377,349.753418 
	C336.889374,354.322937 329.221497,361.235474 319.290283,364.174591 
	C314.904144,365.472626 310.418945,366.821899 306.117157,368.569061 
	C303.691040,369.554382 302.469208,368.450806 303.207428,365.904877 
	C306.570679,354.305267 311.622162,343.538208 319.844940,334.555206 
	C325.606140,328.261322 326.471710,322.388000 322.209869,315.210693 
	C317.129639,306.655182 316.578857,296.845398 314.698334,287.419159 
	C312.942841,278.619507 311.656738,269.719025 309.671143,260.974884 
	C308.327728,255.058563 309.276459,249.354904 310.108887,243.632767 
	C312.844177,224.830338 318.248199,206.587860 322.126068,188.019089 
	C324.236969,177.911240 330.383759,170.342239 339.878632,165.754318 
	C358.938019,156.544846 378.840973,149.259354 398.032623,140.386642 
	C414.071075,132.971695 430.477203,126.489037 446.838806,119.903290 
	C457.512939,115.606827 468.428802,114.747513 479.065582,121.018906 
	C484.214539,124.054710 489.894073,126.177483 495.156921,129.038315 
	C498.157135,130.669205 500.223633,130.213760 502.672882,127.981850 
	C522.619873,109.804695 542.661682,91.731522 562.673340,73.625305 
	C564.155823,72.283958 565.628357,70.931625 567.370361,69.350082 
M375.532532,209.850891 
	C389.917725,206.950287 404.174927,203.688812 416.979767,196.018295 
	C418.591766,195.052658 420.959595,193.126907 422.308228,195.244476 
	C424.802887,199.161407 426.858368,203.454346 428.196136,208.322098 
	C424.573578,207.842728 424.576050,207.841293 422.413879,204.122910 
	C421.144592,201.940140 420.085876,199.466690 416.731049,201.245239 
	C404.061432,207.962021 390.103851,210.629105 376.338379,213.807587 
	C372.154297,214.773712 369.650177,216.929657 367.982788,220.757690 
	C364.189301,229.466965 360.093994,238.030640 354.284851,245.647873 
	C353.074341,247.235153 351.842468,248.982224 352.091064,251.095673 
	C353.013947,258.941559 356.181946,266.294586 357.045197,274.584015 
	C364.930542,265.452667 373.997742,259.190186 385.602386,256.817352 
	C388.498810,256.225098 388.325684,253.836227 386.198120,251.910568 
	C384.713440,250.566833 382.073395,250.114395 382.543091,247.182266 
	C384.449615,245.789337 386.093658,246.908783 387.684479,247.665695 
	C391.657654,249.556168 394.758453,248.913971 397.888214,245.547745 
	C403.781433,239.209244 410.165863,233.330902 416.222046,227.139938 
	C440.509003,202.312164 466.423340,179.081329 489.206329,152.777664 
	C491.625824,149.984253 494.974976,147.971252 496.657135,144.452225 
	C490.589966,141.340729 490.589966,141.340729 494.587128,133.653564 
	C488.537842,129.653305 481.807434,126.851440 475.407410,123.446686 
	C466.562073,118.741020 457.646698,119.548096 448.889252,123.244331 
	C431.409271,130.622070 413.675171,137.376190 396.367676,145.186905 
	C379.526886,152.787018 362.410919,159.776093 345.439148,167.087708 
	C335.972687,171.165985 328.636505,177.439316 326.108002,187.852722 
	C322.813171,201.422089 319.703278,215.042511 316.854523,228.711975 
	C314.791077,238.613327 311.683197,248.563431 313.307770,258.778900 
	C315.709534,273.881500 318.749512,288.885193 321.690369,303.897186 
	C322.242310,306.714539 322.754547,309.780365 325.703613,312.330780 
	C331.556824,302.205505 339.802307,294.411469 347.056580,285.788757 
	C347.806763,284.897095 348.648224,284.040833 349.197784,283.032166 
	C349.903564,281.736725 350.555786,280.349884 350.886902,278.922546 
	C353.226532,268.836365 349.545654,259.526001 347.006561,250.079865 
	C346.847931,249.489731 346.341888,248.908844 345.848541,248.506088 
	C341.709351,245.126831 339.320221,239.582520 333.367859,238.397125 
	C333.028046,238.329453 332.874146,237.328232 332.547943,236.559341 
	C334.963379,234.788284 337.108978,235.627197 339.221039,236.589645 
	C341.881958,237.802170 343.867676,239.851517 345.469910,242.203308 
	C347.408539,245.048767 349.016785,244.976700 351.280731,242.419144 
	C357.600067,235.280319 360.825073,226.470581 364.765991,218.054382 
	C367.283020,212.678940 366.370331,207.610184 362.363403,203.254654 
	C359.209167,199.825989 355.850769,196.585556 352.599640,193.245392 
	C351.465546,192.080246 349.666046,190.793900 351.221161,189.097336 
	C352.790863,187.384750 354.156464,189.031021 355.405243,190.149597 
	C360.892792,195.064987 365.896423,200.408524 369.603088,206.814362 
	C370.811432,208.902573 372.182831,210.238022 375.532532,209.850891 
M419.114197,365.486969 
	C420.104401,365.226898 420.288300,364.551880 420.238342,363.607086 
	C419.754303,354.452454 422.459137,351.736328 431.337860,353.059631 
	C437.911041,354.039276 444.403137,355.557220 450.939575,356.791687 
	C453.951080,357.360443 455.699951,358.723053 455.382690,362.169067 
	C455.043060,365.858002 456.020599,369.431091 457.000519,372.968079 
	C457.798004,375.846375 459.666504,376.874481 462.610535,376.674591 
	C469.773010,376.188293 473.103394,371.670959 471.383209,363.688049 
	C468.430695,349.986481 460.601562,340.214203 447.058807,335.739319 
	C442.085327,334.095917 437.609772,330.613342 431.880310,331.468201 
	C425.228973,332.460602 418.928406,334.488739 412.917450,337.458008 
	C411.236816,338.288177 409.348053,339.367371 409.636688,341.441895 
	C410.578033,348.208374 409.090057,354.564117 406.441040,360.708740 
	C410.404388,363.306976 414.529938,364.094299 419.114197,365.486969 
M353.622742,299.942108 
	C353.010834,297.954865 353.460510,295.590363 350.908142,293.426971 
	C344.605286,299.895477 337.917633,305.956970 332.899902,313.601349 
	C332.558868,314.120850 332.514191,314.859955 332.415588,315.509644 
	C331.020447,324.703125 334.783478,331.456390 343.040466,334.606018 
	C350.269806,337.363647 358.586060,334.198029 363.295837,326.998779 
	C364.540283,325.096497 364.961670,323.352478 363.127502,321.680176 
	C356.958374,316.055450 355.162781,308.489044 353.622742,299.942108 
M386.959717,366.642181 
	C388.116913,366.659058 389.307495,366.863281 390.426086,366.663727 
	C401.178406,364.745178 409.167450,350.832184 405.633881,340.265961 
	C404.704376,337.486542 397.881775,333.278534 395.054108,334.151031 
	C391.090179,335.374146 387.247803,337.008606 383.398132,338.576935 
	C381.623749,339.299805 380.632904,340.804810 381.698639,342.582397 
	C385.018097,348.118988 384.071747,354.163391 384.177063,360.117584 
	C384.216278,362.334137 383.577972,364.922974 386.959717,366.642181 
M458.448151,336.521759 
	C460.969696,335.716827 462.835815,333.479034 465.585510,333.197327 
	C472.508606,332.488068 479.423676,331.629700 486.364716,331.190643 
	C491.331787,330.876434 494.335571,333.415985 495.575104,338.416077 
	C496.262482,341.188782 496.225708,344.279327 498.163483,346.928314 
	C499.337097,345.747894 499.582123,344.505676 499.598663,343.158752 
	C499.729218,332.522736 492.926086,323.840546 482.576111,321.542969 
	C479.178040,320.788605 475.750641,320.158417 472.324005,319.541931 
	C461.087128,317.520447 452.517242,322.232880 444.558716,330.331482 
	C449.351349,332.540222 453.546356,334.473511 458.448151,336.521759 
M482.516907,335.163696 
	C479.549164,335.444946 476.576050,335.679199 473.614563,336.015625 
	C461.520264,337.389526 461.516479,337.404480 468.317566,347.496368 
	C469.682861,349.522247 470.691803,351.969147 473.806152,351.888550 
	C478.936462,351.755768 484.077637,351.992920 489.142853,350.768860 
	C491.495209,350.200409 493.100647,349.046112 493.455566,346.608887 
	C494.492737,339.486389 490.603485,335.060028 482.516907,335.163696 
M426.299286,356.573181 
	C423.805023,357.389648 422.926483,359.240845 423.456482,361.630951 
	C424.091827,364.496124 424.448151,367.601166 428.019012,368.693146 
	C435.148102,370.873291 442.241241,373.170837 449.363861,375.372589 
	C450.622894,375.761780 451.961548,375.994446 453.384369,374.738892 
	C452.824646,370.865234 452.221558,366.819458 451.662964,362.767548 
	C451.410217,360.934479 450.090302,360.434570 448.574158,360.033051 
	C441.520660,358.165100 434.412323,356.641357 426.299286,356.573181 
M532.602417,133.347763 
	C543.490540,130.198868 549.167542,120.523582 546.445740,109.342979 
	C538.346802,113.672989 529.670837,116.920624 523.883728,124.601685 
	C522.486389,126.456352 520.501099,128.027924 521.592712,130.689575 
	C522.631348,133.222015 525.037598,133.638077 527.369873,133.829895 
	C528.831238,133.950104 530.326782,133.654449 532.602417,133.347763 
M320.339111,346.295502 
	C318.152191,344.996735 316.492798,345.783356 315.334015,347.752136 
	C313.657990,350.599640 312.053894,353.494995 310.558044,356.440491 
	C309.899414,357.737396 309.232971,359.234619 310.424225,360.625183 
	C311.670807,362.080261 313.357758,362.068115 315.003998,361.615387 
	C316.268616,361.267639 317.475677,360.687500 318.679901,360.147278 
	C328.944458,355.543121 329.083466,354.691406 320.339111,346.295502 
M615.504028,54.014950 
	C618.140869,56.559189 620.734375,59.150707 623.434875,61.625488 
	C624.588806,62.682926 626.088013,63.352032 627.457825,62.042313 
	C628.696838,60.857677 628.749573,59.269207 627.674988,57.953861 
	C624.402527,53.948093 620.907776,50.142223 616.496033,47.340050 
	C615.171753,46.498913 613.664062,46.134335 612.368408,47.450939 
	C610.892639,48.950634 611.938660,50.182590 612.950623,51.343567 
	C613.606384,52.095966 614.332153,52.787407 615.504028,54.014950 
M376.656830,342.124573 
	C371.365814,341.926575 370.064697,343.519257 372.257477,347.936401 
	C374.334808,352.120941 376.803528,356.101715 380.061768,360.156097 
	C381.027618,348.618469 380.996735,348.442108 376.656830,342.124573 
M325.632172,344.163116 
	C328.277100,346.829559 330.718414,349.806885 335.112701,349.370972 
	C336.349640,349.248260 337.539856,349.164185 337.877075,347.816528 
	C338.241241,346.361237 337.039124,345.771790 335.977570,345.299164 
	C332.707001,343.842957 328.732819,344.076843 326.088379,341.052826 
	C325.536957,340.422211 324.424103,340.478760 323.960632,341.363770 
	C323.361420,342.507904 324.296722,343.166840 325.632172,344.163116 
M501.721191,134.092606 
	C500.702484,135.236511 499.066101,135.953293 498.878082,137.908615 
	C506.181885,136.011322 511.938934,130.490036 513.305786,123.637955 
	C509.312195,127.237015 505.766754,130.432190 501.721191,134.092606 
z"/>
<path fill="#000000" opacity="1.000000" stroke="none" 
	d="
M788.613892,665.292664 
	C788.401367,647.542847 785.621338,630.711365 779.859497,614.396973 
	C779.658203,613.827087 779.479431,613.249207 778.776428,612.688904 
	C774.474365,665.791321 774.565369,719.261719 763.238586,771.629089 
	C762.458862,758.543884 765.131775,745.734497 766.478455,732.823608 
	C767.858398,719.594971 769.623413,706.395874 770.590576,693.137878 
	C771.547424,680.021423 771.539856,666.842834 771.896179,653.689819 
	C772.255920,640.410706 773.732605,627.161865 774.716187,613.950562 
	C770.021912,611.335083 764.919861,613.680603 759.352600,612.576050 
	C762.421814,608.164673 766.333435,608.633057 769.557495,609.178772 
	C774.651428,610.041138 776.118530,608.240784 775.784851,603.468262 
	C774.739624,588.517456 780.776062,575.115967 785.209229,561.365906 
	C786.329468,557.891174 787.761353,554.493042 787.905701,550.750732 
	C788.041260,547.236938 786.473022,545.568298 782.933899,545.350586 
	C775.106934,544.869019 771.930359,546.586304 768.995056,553.741821 
	C767.355896,557.737305 765.943237,561.856445 764.817566,566.024963 
	C762.948792,572.945374 764.775879,575.937073 771.672913,577.767456 
	C773.709778,578.308044 775.828613,578.539246 777.740234,578.881775 
	C778.299255,580.387634 777.665222,581.158630 776.657410,581.532288 
	C770.123047,583.955505 760.351501,577.086609 760.765808,570.113831 
	C761.270020,561.627625 764.590393,553.980591 768.758850,546.688232 
	C770.159302,544.238098 772.817261,543.505920 775.561157,542.193115 
	C772.110718,540.763367 769.353516,542.031677 766.597229,543.042480 
	C756.908264,546.595642 751.086365,554.320374 746.005920,562.641541 
	C734.937439,580.770264 728.287354,600.162292 729.206238,621.786255 
	C729.573547,630.431458 729.176147,639.114502 728.980408,647.777039 
	C728.698608,660.253418 722.713013,670.471130 715.027405,679.546326 
	C708.266785,687.529297 700.012817,694.245728 693.231567,702.213562 
	C678.049438,720.052246 670.515564,741.551270 665.330994,763.988464 
	C662.711487,775.325134 660.561890,786.757690 659.129700,798.321350 
	C658.859131,800.505859 658.782349,802.926636 657.083862,804.978760 
	C654.800476,804.256897 654.904297,802.675842 655.187988,800.990723 
	C656.899414,790.826782 658.508179,780.644226 660.352722,770.504517 
	C661.335083,765.104614 657.059021,760.264893 651.374939,760.894165 
	C646.053406,761.483337 640.740234,761.702271 635.448914,760.842651 
	C623.533203,758.906677 615.925659,751.447693 610.610901,741.160095 
	C609.161377,738.354248 607.846558,735.478821 606.215637,732.110046 
	C605.767334,739.093750 606.750671,745.472778 607.369080,751.830750 
	C609.283875,771.517822 611.131470,791.212158 615.391907,810.598938 
	C619.333008,828.532837 627.535522,844.744812 635.188416,861.187317 
	C636.635437,864.296387 637.426453,867.320740 637.367493,870.764709 
	C636.864990,900.080566 636.474731,929.398376 636.039917,958.715393 
	C636.004211,961.120361 636.156982,963.607056 634.393188,965.632019 
	C631.395569,964.468018 632.070251,962.236572 632.105408,960.388489 
	C632.668152,930.748657 633.247864,901.109009 633.909790,871.471252 
	C633.978760,868.381470 633.382812,865.633545 632.072510,862.825073 
	C622.919495,843.206726 613.558655,823.684082 610.110779,801.962769 
	C607.291687,784.202271 605.208862,766.373474 603.712280,748.461426 
	C602.439209,733.224915 601.735840,717.919800 595.603333,703.495239 
	C591.296631,693.365234 592.706055,683.339600 597.482300,673.575012 
	C601.483154,665.395569 607.839539,661.247925 616.936157,661.273132 
	C617.756714,661.275391 618.578186,661.224182 619.397278,661.168518 
	C619.539673,661.158875 619.672241,661.002991 620.141052,660.700806 
	C620.605957,655.323242 618.357666,649.883118 619.268494,644.212708 
	C622.215759,625.866821 632.784424,616.974976 651.498291,617.977966 
	C652.526489,611.378174 653.519653,604.700806 654.630005,598.043030 
	C655.012207,595.751099 655.609009,593.485840 656.240723,591.245972 
	C660.553711,575.955200 667.757263,570.443848 683.404785,569.788452 
	C693.204773,569.377991 699.547302,573.919800 703.403381,582.528748 
	C705.910706,588.126770 707.894592,593.983154 712.323425,599.901367 
	C715.497498,592.124756 718.449890,584.999146 721.297058,577.831787 
	C721.922241,576.257874 720.735046,574.977966 720.022705,573.686401 
	C715.276062,565.079773 710.493042,556.493042 705.777954,547.869141 
	C704.640625,545.788879 703.200745,544.013062 701.461365,542.420410 
	C696.888306,538.233093 692.995605,533.469482 689.679443,528.233643 
	C687.705566,525.117126 686.154541,521.803040 685.221436,518.228821 
	C682.308777,507.072937 687.328186,500.534668 698.858582,500.836426 
	C707.694031,501.067657 715.833862,503.985046 723.501038,508.261230 
	C730.618225,512.230774 737.329407,516.800659 743.148010,522.365417 
	C745.542480,520.956299 745.872192,518.860535 746.612061,517.070435 
	C762.642578,478.279633 778.625366,439.469086 794.663757,400.681519 
	C798.420288,391.596649 799.997864,391.013733 808.890869,394.839081 
	C809.349915,395.036560 809.800903,395.253143 810.260010,395.450500 
	C823.274658,401.045227 823.279907,401.047150 817.757690,414.361938 
	C801.486755,453.593292 785.202087,492.818970 768.963135,532.063538 
	C768.100647,534.147827 766.751465,536.121216 766.822205,538.951172 
	C773.076599,537.234070 778.806641,538.795227 784.351074,541.214294 
	C791.023804,544.125610 792.687866,547.266663 790.874451,554.228088 
	C789.407410,559.859619 787.907898,565.557129 785.637024,570.890808 
	C778.783142,586.988892 778.238464,602.732117 784.814331,619.302856 
	C793.359924,640.837219 792.624573,663.750793 791.838989,686.401428 
	C790.897400,713.551941 785.905273,740.041748 775.626343,765.261658 
	C766.329773,788.071228 761.177124,811.956482 755.958923,835.851074 
	C753.604370,846.632996 755.732300,857.429504 756.714417,868.168701 
	C758.410828,886.717957 760.416992,905.239380 762.369873,923.764404 
	C763.101624,930.706482 764.032898,937.627747 764.903076,944.554749 
	C765.289429,947.629639 765.646667,950.691101 765.092285,953.773193 
	C762.099426,953.827759 762.039734,951.883667 761.876160,950.364380 
	C758.333130,917.456909 754.481262,884.581787 751.737671,851.591003 
	C750.534363,837.121887 755.388855,823.669861 758.324219,809.890442 
	C762.394165,790.785034 769.106689,772.525330 775.769470,754.210999 
	C783.209167,733.761230 786.988647,712.512085 787.866943,690.716492 
	C788.202148,682.398682 788.770508,674.095154 788.613892,665.292664 
M668.323914,737.092590 
	C664.831909,737.805786 661.848999,737.237793 660.839050,733.320374 
	C659.869690,729.561035 662.049927,727.257935 665.222473,725.905273 
	C667.348877,724.998535 669.636292,724.416443 671.898621,723.891296 
	C678.000610,722.474915 682.161011,713.288574 679.012756,707.820862 
	C676.506836,703.468689 674.320435,699.014709 673.155457,694.093689 
	C671.798340,688.361084 669.262695,683.158447 666.112427,678.187805 
	C659.801025,668.229248 652.835815,658.598328 652.109253,646.099365 
	C651.799316,640.768616 651.694458,635.455261 651.704407,630.131592 
	C651.720642,621.458618 650.135071,620.071411 641.467834,621.210999 
	C639.065552,621.526855 636.916748,622.436951 635.082886,623.863770 
	C625.860840,631.038818 621.263123,640.311157 622.795044,652.156006 
	C624.730103,667.118347 629.995667,681.182251 634.527649,695.451721 
	C638.834412,709.012146 646.131531,720.825989 654.988342,731.795105 
	C657.003418,734.290771 659.313843,736.444458 662.208496,737.848022 
	C664.593445,739.004395 666.997192,739.418579 669.471252,736.497986 
	C670.790100,733.775696 672.107910,731.053101 672.258484,727.540833 
	C670.372620,727.979736 668.922180,728.196350 667.560059,728.668030 
	C666.169434,729.149719 664.648743,729.783875 664.529297,731.530823 
	C664.411377,733.256104 665.907715,733.516296 667.167725,733.907043 
	C668.708801,734.384949 668.985657,735.640198 668.323914,737.092590 
M702.650452,614.580933 
	C702.655762,612.084717 702.946838,609.634888 703.313843,607.152649 
	C704.558350,598.737183 703.635071,590.542603 699.725281,582.871582 
	C697.197754,577.912476 693.589905,573.741516 687.736816,573.410278 
	C669.435120,572.374573 663.155273,578.382568 659.333679,592.709045 
	C655.349854,607.643738 655.486572,622.956726 655.048401,638.266968 
	C654.526245,656.513672 664.809692,669.750732 674.222900,683.861206 
	C681.467896,670.144775 689.107483,669.269104 699.342529,680.479431 
	C700.862183,682.143860 701.739380,684.511902 704.073486,685.336121 
	C709.192078,681.788391 709.759155,680.616943 708.151367,674.949097 
	C705.746460,666.471008 703.173157,658.039856 700.600891,649.610352 
	C700.010010,647.673950 699.520569,645.836548 700.031067,643.767212 
	C702.317200,634.500671 702.891418,625.062805 702.650452,614.580933 
M596.896667,686.353271 
	C596.120667,689.140320 596.135498,691.936279 596.834900,694.731201 
	C599.580750,705.703247 602.983398,716.466553 607.515686,726.834534 
	C609.389099,731.120361 612.041504,735.011719 615.426392,738.263062 
	C619.168274,741.857422 622.954956,745.479309 628.710571,748.001587 
	C627.583862,742.793762 629.637207,741.617004 633.602234,741.500549 
	C637.043396,741.399475 640.509705,740.420776 643.374573,738.173523 
	C645.865662,736.219360 648.176941,736.478699 650.596680,738.434753 
	C651.677246,739.308228 652.618958,740.647522 654.312134,740.595520 
	C654.064453,737.554016 654.138306,737.498230 652.161987,734.881165 
	C641.233643,720.410034 632.868164,704.664795 628.028442,687.109680 
	C626.394836,681.184143 624.457886,675.342468 622.689819,669.453491 
	C622.053406,667.333862 621.452209,665.468994 618.702026,665.027161 
	C612.148682,663.974365 605.995361,666.511658 602.326843,672.165771 
	C599.669189,676.261841 597.916626,680.723572 596.896667,686.353271 
M696.889954,504.266052 
	C688.932495,505.499207 686.362366,509.027405 688.308960,516.581787 
	C690.863220,526.494446 697.235168,533.917542 704.575500,540.639099 
	C704.937561,540.970642 705.390686,541.394714 705.826233,541.425598 
	C713.677795,541.982239 721.653198,544.043579 729.080261,539.391113 
	C730.463013,538.524963 731.987915,537.049255 734.311279,538.834229 
	C731.362732,543.235657 726.809265,544.091003 722.429382,545.441650 
	C717.862854,546.849915 713.379700,545.422729 707.979919,545.102295 
	C713.262085,554.509338 718.132324,563.182800 723.546936,572.825806 
	C729.753235,557.787415 735.370667,544.096497 741.071228,530.440186 
	C742.034424,528.132812 741.817993,526.216003 739.993774,524.556213 
	C727.935425,513.585327 714.737244,504.970032 696.889954,504.266052 
M683.638550,698.955200 
	C687.121765,701.752502 689.996277,700.955811 692.514038,697.533203 
	C693.395996,696.334290 694.443604,695.252380 695.458557,694.156799 
	C701.405273,687.737854 701.384216,687.053772 694.917114,680.834473 
	C694.319885,680.260132 693.692505,679.712585 693.044495,679.196106 
	C686.841431,674.251709 679.999390,677.070068 678.364868,684.946899 
	C677.195679,690.580933 680.275574,694.393127 683.638550,698.955200 
M806.810974,397.737854 
	C802.443909,395.184509 799.747192,396.368835 798.298523,401.236267 
	C797.447571,404.095367 796.107056,406.811371 794.946228,409.574738 
	C794.207031,411.334503 794.184387,412.869720 796.197083,413.730286 
	C801.052429,415.806244 805.819397,418.141235 811.188232,419.463348 
	C812.157471,417.535370 813.070129,415.957367 813.770203,414.290070 
	C819.498779,400.647400 819.212769,403.223816 806.810974,397.737854 
M806.828857,431.144684 
	C807.540039,429.462830 808.213074,427.763489 808.973022,426.103912 
	C809.764343,424.375580 809.210205,423.199371 807.565308,422.495422 
	C802.598022,420.369568 797.614319,418.282104 792.288147,416.032349 
	C790.934631,419.163208 789.899109,421.580170 788.844421,423.988708 
	C788.317078,425.193176 788.287537,426.485596 789.541870,427.027985 
	C794.555115,429.195953 799.619446,431.251526 804.717834,433.210907 
	C805.535278,433.525055 806.093872,432.479095 806.828857,431.144684 
M644.394165,751.211121 
	C647.530212,749.847046 650.777222,748.623108 652.404541,745.154175 
	C650.732544,743.035706 648.697144,739.950684 646.657288,740.939819 
	C642.257446,743.073425 637.459412,744.015015 632.951477,745.630920 
	C635.117065,752.225098 635.450378,752.391357 644.394165,751.211121 
M785.751465,452.275757 
	C789.507874,450.267639 790.194824,446.731140 790.394531,442.951782 
	C790.483826,441.262695 789.775452,439.350830 788.136780,439.802917 
	C783.480896,441.087341 786.552185,447.083374 782.775085,449.399200 
	C781.649475,450.089325 781.929932,452.254242 784.117126,452.646423 
	C784.429382,452.702454 784.772217,452.587494 785.751465,452.275757 
M730.497192,575.555664 
	C731.254211,573.656677 734.396790,572.882568 732.775574,568.248962 
	C730.880981,570.585632 729.391418,572.063049 728.355225,573.809570 
	C727.451660,575.332520 727.335327,576.940308 730.497192,575.555664 
z"/>
<path fill="#000000" opacity="1.000000" stroke="none" 
	d="
M260.349731,739.539978 
	C256.868500,737.494263 253.454041,738.067993 250.015137,737.773804 
	C238.859100,736.819519 228.819016,739.524292 218.527573,743.464355 
	C212.359512,745.825867 205.243332,744.529663 199.009323,741.042969 
	C200.285721,737.864075 202.220657,739.197083 203.843369,739.530640 
	C210.481140,740.895081 217.060791,741.300842 223.458450,738.485596 
	C225.115295,737.756531 226.805313,737.009644 228.180847,735.035950 
	C222.324829,733.486267 215.661285,734.354919 210.662003,728.866943 
	C215.680389,726.522034 218.763229,730.675415 222.559998,730.674561 
	C226.514893,730.673645 230.544876,731.525452 234.801712,728.727661 
	C230.223160,727.592041 225.889984,727.479431 222.153687,725.432190 
	C218.704819,723.542542 214.557831,722.211975 214.460602,717.237305 
	C216.404755,716.397583 217.251190,717.280457 218.030731,718.141663 
	C222.535110,723.117859 228.534256,724.503967 234.790710,724.553528 
	C240.325790,724.597412 245.742004,725.039001 251.115601,726.305786 
	C252.238876,726.570618 253.505081,726.904297 254.568146,726.644531 
	C264.774536,724.150208 271.994385,730.281677 279.361755,735.450012 
	C282.635864,737.746826 286.315918,737.016052 290.505005,738.334473 
	C286.771362,742.930298 282.668121,740.287720 278.766266,739.988647 
	C277.322968,744.487488 279.486115,746.708313 283.357056,747.621277 
	C298.259613,751.136292 314.182129,737.198059 312.924957,721.867004 
	C312.736420,719.567749 311.725433,717.753357 310.217682,716.122559 
	C301.963135,707.194031 293.640320,698.327271 285.482086,689.311584 
	C280.236969,683.515259 273.267151,682.397644 266.103333,681.336365 
	C254.749634,679.654480 243.421265,677.787903 232.115112,675.811096 
	C230.012680,675.443481 227.338562,675.517761 226.305359,672.823914 
	C227.136368,671.060547 228.593384,671.539490 229.821030,671.781616 
	C246.129898,674.998718 262.717163,676.615417 278.940948,680.326599 
	C280.048615,680.579956 281.345825,680.741943 282.390228,680.417053 
	C290.101349,678.018616 294.734375,681.107544 298.562500,687.900024 
	C302.303192,694.537415 307.332642,700.443542 311.726471,706.719604 
	C314.751526,711.040466 316.624481,715.722107 316.408600,721.173340 
	C316.181610,726.904114 319.894958,731.019531 323.462250,737.261108 
	C323.292664,730.767639 326.197693,730.640869 329.654968,731.944519 
	C335.012085,733.964417 338.837952,730.921326 341.966431,727.614929 
	C351.401398,717.643250 353.305756,705.902405 347.939362,693.399780 
	C339.035309,672.655151 327.249420,653.508911 314.331329,635.050293 
	C310.612305,629.736206 305.175507,627.787354 298.879608,627.142944 
	C284.218689,625.642334 269.591003,627.462891 254.944717,627.247314 
	C242.452240,627.063477 229.969681,626.793945 217.482254,626.359009 
	C205.336319,625.936035 197.677872,631.762573 194.272217,643.419006 
	C191.419983,653.181335 189.796982,663.216370 188.502579,673.281860 
	C188.122192,676.239685 187.191254,678.693542 185.398453,680.987000 
	C178.061417,690.372681 176.759338,701.165588 177.692780,712.653748 
	C179.097809,729.945862 185.636490,745.936279 189.808655,762.525635 
	C193.259537,776.247009 195.730911,790.178528 198.060959,804.119080 
	C199.091049,810.281982 196.751862,816.316162 195.724319,822.349609 
	C188.104263,867.092285 180.770355,911.886597 172.197006,956.461243 
	C171.710602,958.990173 172.259476,962.178284 169.343689,963.862671 
	C167.114243,962.745544 167.686035,960.972412 167.991837,959.416992 
	C175.466995,921.395325 181.615387,883.138184 188.332367,844.982117 
	C190.464050,832.872925 192.865234,820.794861 194.455750,808.612793 
	C195.478455,800.779602 192.279282,793.219177 191.166077,785.507507 
	C188.251785,765.319214 180.632385,746.309265 176.269974,726.487122 
	C174.048157,716.391602 172.737640,706.174011 174.707657,695.811951 
	C175.490250,691.695557 176.102524,687.368469 178.753769,684.122131 
	C184.212463,677.437988 185.407959,669.494446 186.732788,661.427673 
	C187.728912,655.362366 189.318085,649.396118 190.575882,643.371704 
	C192.824631,632.601013 199.561569,626.131897 209.994675,623.490112 
	C213.517242,622.598145 215.076294,621.042725 214.724228,617.319702 
	C213.784210,607.379028 218.591064,600.923462 227.336975,596.798889 
	C235.177765,593.101379 242.898651,588.802551 251.318756,586.923218 
	C264.257629,584.035339 272.254913,575.585510 279.329071,565.362488 
	C288.617401,551.939880 297.897461,538.481506 309.026306,526.467773 
	C311.324921,523.986389 309.799896,522.245605 308.623047,520.297729 
	C296.562195,500.335541 284.468994,480.392853 272.410400,460.429291 
	C265.519867,449.021667 258.628784,437.613831 251.829742,426.151672 
	C247.716980,419.218140 249.553894,412.514282 256.553864,408.205627 
	C263.315186,404.043884 268.985840,405.227905 273.607666,412.345856 
	C297.198364,448.677490 320.674347,485.083588 344.190338,521.463745 
	C344.552155,522.023438 344.955933,522.560913 345.267548,523.147400 
	C351.426758,534.740051 359.805756,544.023560 371.832703,549.890991 
	C377.110687,552.465881 380.936035,557.128723 385.106567,561.189392 
	C387.010742,563.043457 388.374725,563.666199 391.043030,562.050659 
	C409.186829,551.065125 421.198395,557.800903 422.125793,579.237305 
	C422.804230,594.917969 419.272858,610.015320 415.745331,625.091248 
	C414.887512,628.757507 414.843597,631.796204 417.306000,634.866821 
	C419.275513,637.322937 420.510529,640.379028 422.533997,642.778992 
	C434.884399,657.427368 440.019196,674.963196 443.241516,693.337646 
	C444.160187,698.576111 445.498505,703.742004 446.686951,708.931458 
	C446.985992,710.237183 447.487946,711.507568 445.606445,713.680298 
	C437.470062,708.468079 430.114563,701.901978 422.543060,695.721436 
	C415.039490,689.596252 405.976227,684.974426 402.253448,675.062439 
	C400.157349,676.392334 400.020599,678.177429 399.470642,679.660645 
	C390.320618,704.338013 379.937225,728.523560 370.296570,753.001465 
	C363.245697,770.903809 351.678650,784.713257 335.980896,795.408447 
	C333.365875,797.190125 331.017731,799.428406 328.256378,800.918579 
	C318.700256,806.075439 313.576202,814.092834 310.656342,824.454102 
	C306.459106,839.348145 301.570709,854.050842 297.613281,869.026001 
	C295.385284,877.456787 294.834534,886.135254 294.459229,894.725891 
	C293.696228,912.190918 293.722168,929.689819 293.357819,947.173401 
	C293.316223,949.169922 294.065308,951.535828 291.809540,952.950256 
	C289.207275,952.046692 289.731598,949.953735 289.733459,948.251465 
	C289.759644,924.107666 289.569580,899.932739 292.745789,875.943848 
	C294.520111,862.543091 299.208649,849.800049 303.124023,836.911865 
	C305.543610,828.947266 308.380890,821.110474 310.911102,813.178162 
	C312.074493,809.530762 314.131470,806.740784 317.271210,804.518005 
	C324.068359,799.706055 330.651398,794.590637 337.468414,789.808044 
	C350.230469,780.854614 359.540436,769.257263 365.505096,754.825439 
	C376.572357,728.047729 387.790222,701.332886 397.699860,674.094299 
	C398.456879,672.013489 399.013336,670.021729 397.715393,667.885437 
	C393.222443,660.491089 388.803619,653.051636 383.837830,644.763489 
	C384.508575,656.168884 383.766449,666.581421 386.321869,676.945557 
	C389.123749,688.309265 383.651001,695.592224 371.976013,696.057068 
	C365.832031,696.301697 359.587402,697.265381 352.986816,695.885315 
	C353.334656,698.203735 353.688293,700.298950 353.958038,702.404846 
	C355.013763,710.647156 353.869141,718.359558 348.433716,725.022522 
	C345.564819,728.539307 343.443634,732.393250 342.033447,736.778198 
	C339.870453,743.503906 335.040558,746.319397 327.833282,745.700439 
	C327.178619,745.644165 326.365997,745.370056 325.886139,745.646851 
	C319.878906,749.112061 315.806091,745.910950 312.209961,741.705872 
	C310.068420,741.523621 308.990173,742.950073 307.753998,743.989014 
	C297.372589,752.712952 281.625427,756.118164 268.411469,745.224609 
	C265.976898,743.217651 263.259674,741.553528 260.349731,739.539978 
M239.544128,595.096802 
	C235.643692,596.962463 231.765488,598.876404 227.838043,600.683411 
	C220.356842,604.125427 217.568832,610.030884 218.101654,618.059082 
	C218.318314,621.323364 219.241608,622.632996 222.728958,622.929688 
	C250.072418,625.256042 277.469604,621.047729 304.790344,623.973022 
	C304.898621,620.562683 301.135773,617.554871 304.122589,614.226562 
	C305.611267,614.420349 306.038208,615.274414 306.271210,616.308594 
	C307.561768,622.037537 311.241760,625.892090 315.942200,629.107971 
	C319.905609,631.819580 323.998230,634.310669 327.374298,637.911682 
	C336.544586,647.692993 344.836487,657.921997 348.328430,671.267090 
	C348.952087,673.650391 350.186066,675.905029 351.342834,678.111816 
	C354.166351,683.498047 357.702881,688.357605 363.243652,691.212646 
	C369.209320,694.286743 374.917908,692.821777 380.223999,689.389099 
	C384.995361,686.302307 383.936096,681.744995 382.957001,677.251038 
	C382.371094,674.561829 382.280731,671.737427 380.731628,669.062256 
	C378.592834,671.059753 376.797424,673.042480 374.694885,674.614624 
	C372.576660,676.198608 370.169006,677.401978 367.859802,678.722473 
	C364.912964,680.407776 364.287201,682.843811 365.277954,685.954102 
	C365.730011,687.373169 367.245972,688.900330 365.248505,690.337463 
	C362.523315,688.643860 362.473907,688.595642 361.913055,687.102356 
	C359.968140,681.923889 361.748596,677.613037 367.231018,674.853699 
	C372.862610,672.019165 378.985657,668.476196 380.147064,662.492432 
	C381.980957,653.044250 381.626190,642.941650 376.201202,634.383789 
	C362.689514,613.069214 346.223267,594.073120 328.512115,576.185730 
	C321.319244,568.921326 312.678375,567.546509 302.750214,570.982727 
	C281.663971,578.280701 261.223602,587.231079 239.544128,595.096802 
M374.080200,614.427856 
	C377.346802,617.561646 380.966705,620.229248 384.996765,622.275208 
	C392.477997,626.073120 404.371796,623.244690 408.342041,616.814026 
	C396.003448,618.127991 383.425598,610.121399 380.271942,599.090027 
	C379.462524,596.258789 379.795654,593.894714 381.714905,591.665283 
	C385.509064,587.257751 389.362213,582.939514 395.237610,580.882751 
	C389.380920,569.313049 381.152527,560.241821 370.735992,553.401428 
	C357.240845,544.539307 343.411255,536.182617 329.649506,527.732300 
	C323.734619,524.100342 313.742523,525.999512 309.193634,531.324646 
	C299.988800,542.100220 291.858643,553.684570 283.654846,565.214539 
	C281.122772,568.773193 278.539764,572.295593 275.106415,577.042542 
	C285.851227,573.325623 295.112457,570.213928 304.306396,566.914795 
	C312.964264,563.807983 320.712708,565.539124 327.730652,571.081055 
	C330.988068,573.653381 334.484497,576.178406 336.967804,579.418213 
	C341.113922,584.827454 346.350555,588.211792 352.661407,590.240173 
	C355.357330,591.106689 357.053192,593.039917 358.664856,595.243958 
	C363.370941,601.679749 367.328979,608.721191 374.080200,614.427856 
M315.043915,518.829041 
	C318.987396,518.589294 322.932587,517.973999 326.738373,519.840210 
	C327.729584,520.326233 329.135956,520.158447 329.999786,519.198975 
	C332.327515,516.613403 331.909363,513.240234 330.913696,510.671600 
	C329.539673,507.127014 328.741669,502.890045 324.824707,500.823456 
	C324.482117,500.642700 323.879944,500.990143 323.392975,501.041351 
	C318.882538,501.515778 316.546600,499.724731 316.003632,495.320404 
	C315.739410,493.177094 315.589111,491.020020 315.358063,488.872314 
	C314.730011,483.033661 312.347351,480.203583 306.747467,479.012543 
	C302.938599,478.202423 300.232788,475.866974 299.347656,472.388184 
	C298.308228,468.303162 295.881287,465.731445 292.263062,464.741211 
	C286.438660,463.147125 281.255066,460.583649 276.582916,456.841339 
	C276.527893,456.797302 276.135345,457.174622 275.825531,457.412781 
	C276.492828,459.961426 279.490540,460.936615 280.200958,463.282013 
	C282.953094,472.367798 288.785797,479.767670 293.573700,487.684296 
	C299.989075,498.291901 304.815338,510.032715 315.043915,518.829041 
M396.165833,575.350891 
	C403.251801,585.585449 411.203094,595.287842 415.894226,608.308228 
	C418.000092,595.548706 419.962158,583.993286 417.761292,572.129822 
	C415.949677,562.364685 409.973663,558.484375 400.497955,561.293213 
	C390.534729,564.246582 389.831818,566.238281 396.165833,575.350891 
M418.417114,687.980347 
	C419.769958,688.825623 420.693604,690.482056 422.774689,690.241211 
	C423.919952,688.931030 424.975311,687.401855 426.344513,686.243774 
	C427.847168,684.972961 429.535828,683.365662 431.324249,683.093628 
	C436.679016,682.279236 437.257874,679.424072 435.633606,675.069763 
	C435.172638,673.834045 434.990387,672.493896 434.685364,671.200500 
	C432.828949,663.327881 428.114136,660.454346 420.313477,662.544373 
	C416.311981,663.616455 413.124176,665.964417 410.700287,669.299683 
	C406.849976,674.597656 407.573761,679.526794 412.740326,683.584961 
	C414.440674,684.920410 416.157074,686.235535 418.417114,687.980347 
M399.441254,586.166931 
	C398.132019,584.915894 396.638947,584.455872 394.875885,585.071777 
	C389.496582,586.950928 386.367645,591.225342 383.635834,595.834961 
	C383.218903,596.538391 383.485657,597.795227 383.729340,598.718872 
	C386.076630,607.614929 399.214569,615.010010 408.326538,613.125427 
	C412.636230,612.234009 412.996552,610.268738 411.666473,606.840088 
	C408.816193,599.492493 404.522552,592.996277 399.441254,586.166931 
M393.538605,631.943359 
	C389.835754,631.898865 386.281982,632.861084 384.726044,636.336731 
	C383.331848,639.451111 386.382507,641.747498 387.761597,644.279785 
	C388.149384,644.991882 388.766327,645.593933 389.339600,646.187073 
	C390.536072,647.425171 391.183044,649.642395 393.542999,648.975525 
	C395.758423,648.349548 396.361206,646.357971 396.909363,644.416992 
	C398.260620,639.632507 397.663391,633.964478 402.957245,630.543030 
	C400.098389,631.005859 397.239502,631.468750 393.538605,631.943359 
M330.000275,742.301331 
	C334.445831,742.483459 336.614685,739.857361 338.296570,735.834961 
	C336.149841,735.956848 334.521149,736.006348 332.901276,736.153015 
	C331.199097,736.307251 329.110077,734.543823 327.861206,736.577942 
	C326.602875,738.627441 328.357147,740.277405 330.000275,742.301331 
M410.096375,623.434509 
	C410.679413,624.121887 410.989197,625.303833 412.624115,624.529480 
	C412.437195,622.583435 414.085846,620.770203 413.305939,618.134705 
	C411.586456,619.522949 409.439178,620.190430 410.096375,623.434509 
M355.091919,599.982666 
	C355.732880,600.538452 355.841827,601.827881 357.479858,601.467102 
	C355.144470,598.736145 354.659393,594.684387 349.267334,593.164124 
	C351.642822,595.921387 353.181488,597.707336 355.091919,599.982666 
z"/>
<path fill="#000000" opacity="1.000000" stroke="none" 
	d="
M243.400269,840.580200 
	C255.230942,845.457336 266.087128,844.798096 276.255859,837.237122 
	C280.784973,833.869690 285.417297,830.638977 290.050293,827.414490 
	C291.580414,826.349548 292.827698,824.385315 295.205750,825.324219 
	C294.614532,830.785095 272.052094,845.905273 262.726227,847.155457 
	C253.069336,848.449951 236.770706,843.585022 234.697372,838.588745 
	C237.940796,837.332214 240.276169,839.941895 243.400269,840.580200 
z"/>
<path fill="#000000" opacity="1.000000" stroke="none" 
	d="
M273.317169,710.142273 
	C273.264709,704.806396 273.389587,699.813538 274.941772,695.047241 
	C275.728119,692.632690 276.707825,690.009399 280.411285,690.216492 
	C281.082855,693.818054 277.241760,695.805847 277.809235,699.270264 
	C279.359222,698.731750 278.686005,695.746216 281.722809,696.296021 
	C281.924072,699.569458 282.835968,703.170044 278.412109,704.781311 
	C275.960022,705.674377 276.796204,707.557922 276.415375,709.058899 
	C275.956787,710.866455 275.740601,712.640930 273.317169,710.142273 
z"/>
<path fill="#000000" opacity="1.000000" stroke="none" 
	d="
M303.693970,783.336914 
	C304.048401,784.633240 304.336914,785.587219 304.414856,786.558044 
	C304.447296,786.962341 304.030945,787.402588 303.819641,787.824524 
	C302.305908,787.156860 288.997406,765.590637 288.560669,763.195374 
	C292.774750,763.538513 298.095612,770.572388 303.693970,783.336914 
z"/>
<path fill="#000000" opacity="1.000000" stroke="none" 
	d="
M304.944641,631.307251 
	C306.902222,631.751160 306.926147,632.838013 305.963104,633.857666 
	C301.615814,638.460632 298.341461,643.804749 295.094360,649.181152 
	C294.549469,650.083252 293.667358,650.556824 291.500519,649.306274 
	C294.562531,642.418579 298.166351,635.962402 304.944641,631.307251 
z"/>
<path fill="#000000" opacity="1.000000" stroke="none" 
	d="
M381.435394,283.668762 
	C382.017334,283.329712 382.418182,283.095062 382.633026,283.209534 
	C386.193512,285.106323 389.841583,294.813110 388.170837,300.521301 
	C384.254852,294.915833 382.412018,289.573395 381.435394,283.668762 
z"/>
<path fill="#000000" opacity="1.000000" stroke="none" 
	d="
M767.550537,615.203796 
	C769.365112,615.052734 770.891724,614.513184 772.061340,615.903076 
	C769.274109,620.525757 759.224487,619.798035 754.982849,614.233337 
	C759.399902,613.057922 763.218750,615.885620 767.550537,615.203796 
z"/>
<path fill="#000000" opacity="1.000000" stroke="none" 
	d="
M766.902710,631.000488 
	C758.620728,632.589478 753.910706,630.516785 753.362854,624.407898 
	C757.633423,627.372681 762.022705,628.153503 766.635315,628.219666 
	C768.054138,628.240051 768.279968,629.635315 766.902710,631.000488 
z"/>
<path fill="#000000" opacity="1.000000" stroke="none" 
	d="
M345.664673,709.756836 
	C347.767303,711.801880 345.892059,712.921448 344.811707,713.860840 
	C341.533264,716.711548 338.035461,719.229004 332.821930,717.042480 
	C337.000519,714.582703 341.179138,712.122925 345.664673,709.756836 
z"/>
<path fill="#000000" opacity="1.000000" stroke="none" 
	d="
M309.168579,637.365234 
	C309.786896,637.444275 310.277435,637.549133 310.325897,637.757019 
	C311.230347,641.635803 306.024994,648.049255 300.816895,648.508484 
	C302.831390,643.956299 306.064606,640.847839 309.168579,637.365234 
z"/>
<path fill="#000000" opacity="1.000000" stroke="none" 
	d="
M379.162476,299.636597 
	C378.684265,296.682373 379.857758,295.360352 381.874725,297.388153 
	C384.084778,299.610077 386.021271,302.366180 386.464233,306.195129 
	C381.500671,306.655670 381.079590,302.517975 379.162476,299.636597 
z"/>
<path fill="#000000" opacity="1.000000" stroke="none" 
	d="
M309.744751,812.895996 
	C307.362762,815.421570 306.311615,818.908936 302.676514,819.778748 
	C302.229584,816.902283 306.079102,810.428406 308.424194,810.089722 
	C310.601715,809.775269 310.359589,811.207153 309.744751,812.895996 
z"/>
<path fill="#000000" opacity="1.000000" stroke="none" 
	d="
M302.871460,795.108887 
	C302.896942,793.401367 302.742188,792.017944 304.925232,791.215332 
	C307.314911,794.238159 306.695099,797.377319 305.664398,800.938416 
	C302.325500,799.856445 303.218201,797.411621 302.871460,795.108887 
z"/>
<path fill="#000000" opacity="1.000000" stroke="none" 
	d="
M418.797241,174.783905 
	C419.126556,170.244095 419.461823,166.128510 420.842072,162.206238 
	C421.317139,160.856216 421.828003,159.040298 423.795746,159.682678 
	C425.519714,160.245483 424.924316,161.852310 424.518616,163.073990 
	C423.251587,166.889542 423.172668,170.838943 422.939117,174.791260 
	C422.839020,176.485107 423.093140,178.506989 420.974518,179.509888 
	C418.435883,178.975235 418.947784,176.920486 418.797241,174.783905 
z"/>
<path fill="#000000" opacity="1.000000" stroke="none" 
	d="
M378.210754,239.940460 
	C379.304718,241.568024 380.807526,242.745819 379.223175,245.181778 
	C375.036316,244.091827 373.243134,240.643661 371.601685,237.128937 
	C371.258118,236.393250 371.718811,235.477890 372.628693,235.110535 
	C373.518280,234.751358 374.313171,235.110245 374.869476,235.748657 
	C375.960632,237.000854 376.946625,238.344696 378.210754,239.940460 
z"/>
<path fill="#000000" opacity="1.000000" stroke="none" 
	d="
M419.772888,187.146225 
	C419.956482,185.255722 420.617981,183.935593 422.282715,184.684814 
	C424.491425,185.678864 424.118805,187.985306 424.176666,189.927124 
	C424.213348,191.157745 423.783081,192.364868 422.303436,192.343124 
	C420.566864,192.317627 420.431122,190.733643 420.063934,189.501938 
	C419.877350,188.876083 419.869843,188.196823 419.772888,187.146225 
z"/>
<path fill="#000000" opacity="1.000000" stroke="none" 
	d="
M676.437500,650.593201 
	C673.596313,651.478638 671.344299,653.755005 667.281494,651.965637 
	C671.892761,647.841980 676.902527,646.798828 681.830078,644.532104 
	C682.541077,649.359619 678.798157,649.085938 676.437500,650.593201 
z"/>
<path fill="#000000" opacity="1.000000" stroke="none" 
	d="
M663.838135,647.774414 
	C667.214966,645.260010 669.882935,641.789307 674.682251,643.524597 
	C671.194885,646.925659 666.970459,649.214722 663.931763,652.785034 
	C661.205078,650.588196 662.640625,649.327942 663.838135,647.774414 
z"/>
<path fill="#000000" opacity="1.000000" stroke="none" 
	d="
M680.002686,643.657288 
	C677.302979,643.400696 676.411499,642.299316 678.646057,640.762573 
	C680.185547,639.703796 682.245056,639.000671 683.914124,640.970947 
	C683.847534,643.504089 681.811951,643.137146 680.002686,643.657288 
z"/>
<path fill="#000000" opacity="1.000000" stroke="none" 
	d="
M651.793152,708.338257 
	C655.974609,706.053528 659.623901,702.909973 665.041199,702.693665 
	C662.173096,707.858093 654.993164,710.733154 651.793152,708.338257 
z"/>
<path fill="#000000" opacity="1.000000" stroke="none" 
	d="
M647.672913,707.383789 
	C646.060364,707.247986 645.660034,706.420044 646.080505,705.331360 
	C647.213196,702.398376 654.268188,699.832031 658.544922,701.224670 
	C655.459045,704.498535 651.019409,704.795410 647.672913,707.383789 
z"/>
<path fill="#000000" opacity="1.000000" stroke="none" 
	d="
M623.898071,722.261292 
	C626.648193,725.750793 630.013794,720.982727 632.662292,723.000305 
	C631.008911,726.825378 622.487671,730.959961 616.986023,730.411377 
	C617.665161,726.361938 620.971069,724.609436 623.898071,722.261292 
z"/>
<path fill="#000000" opacity="1.000000" stroke="none" 
	d="
M312.574829,576.622681 
	C308.867706,580.636536 307.745850,585.773926 304.783203,589.958618 
	C302.545685,585.137390 305.202606,581.448303 307.364105,577.867004 
	C309.527161,574.283142 312.173401,570.926758 317.274200,570.603882 
	C317.633606,574.558350 314.023193,574.451538 312.574829,576.622681 
z"/>
<path fill="#000000" opacity="1.000000" stroke="none" 
	d="
M321.640045,574.570923 
	C323.133087,574.016846 324.319946,574.558167 323.936829,575.645203 
	C322.695648,579.166809 320.894165,582.378296 316.390686,583.990417 
	C316.397980,579.465759 319.648132,577.528625 321.640045,574.570923 
z"/>
<path fill="#000000" opacity="1.000000" stroke="none" 
	d="
M326.973877,529.540527 
	C322.053925,532.199585 318.376373,535.949768 315.134644,539.761963 
	C313.078796,538.882141 313.065247,537.756348 313.687073,536.636108 
	C316.230652,532.053345 320.383667,529.397888 325.087799,527.537659 
	C326.341919,527.041748 327.419098,527.541626 326.973877,529.540527 
z"/>
<path fill="#000000" opacity="1.000000" stroke="none" 
	d="
M375.657654,562.577271 
	C376.975708,562.161560 378.015167,561.953857 378.648956,562.969666 
	C379.160553,563.789673 378.767822,564.661011 377.982666,565.056213 
	C374.041199,567.040222 370.740265,569.854065 367.852203,573.670654 
	C366.232819,568.815002 367.673401,566.920959 375.657654,562.577271 
z"/>
<path fill="#000000" opacity="1.000000" stroke="none" 
	d="
M328.627655,535.654907 
	C326.460175,536.643127 324.721375,538.334717 321.933777,536.297363 
	C324.715027,533.335632 327.945251,531.774414 331.774414,530.589355 
	C332.494232,533.631714 330.416077,534.358948 328.627655,535.654907 
z"/>
<path fill="#000000" opacity="1.000000" stroke="none" 
	d="
M377.075500,568.096069 
	C379.470337,567.218018 381.353088,565.358215 384.092621,566.809326 
	C383.038513,570.452637 380.012024,570.887024 377.189362,570.888672 
	C375.519897,570.889587 375.955109,569.371399 377.075500,568.096069 
z"/>
</svg>